<svg width="325" height="55" viewBox="0 0 325 55" fill="none" xmlns="http://www.w3.org/2000/svg">
<path d="M80.5 31.1211C80.5 31.9323 80.3451 32.6934 80.0352 33.4043C79.7253 34.1152 79.3014 34.7396 78.7637 35.2773C78.235 35.806 77.6152 36.2253 76.9043 36.5352C76.1934 36.8451 75.4323 37 74.6211 37H64.8184V17.3945H74.6211C75.4323 17.3945 76.1934 17.5495 76.9043 17.8594C77.6152 18.1693 78.235 18.5931 78.7637 19.1309C79.3014 19.6595 79.7253 20.2793 80.0352 20.9902C80.3451 21.7012 80.5 22.4622 80.5 23.2734C80.5 23.638 80.4499 24.0117 80.3496 24.3945C80.2493 24.7773 80.1081 25.1465 79.9258 25.502C79.7435 25.8574 79.5247 26.181 79.2695 26.4727C79.0143 26.7643 78.7318 27.0059 78.4219 27.1973C78.7409 27.3704 79.028 27.6074 79.2832 27.9082C79.5384 28.1999 79.7572 28.5234 79.9395 28.8789C80.1217 29.2344 80.2585 29.6081 80.3496 30C80.4499 30.3828 80.5 30.7565 80.5 31.1211ZM68.7422 33.0762H74.6211C74.8945 33.0762 75.1497 33.026 75.3867 32.9258C75.6237 32.8255 75.8288 32.6888 76.002 32.5156C76.1842 32.3333 76.3255 32.1237 76.4258 31.8867C76.526 31.6497 76.5762 31.3945 76.5762 31.1211C76.5762 30.8477 76.526 30.5924 76.4258 30.3555C76.3255 30.1185 76.1842 29.9134 76.002 29.7402C75.8288 29.5579 75.6237 29.4167 75.3867 29.3164C75.1497 29.2161 74.8945 29.166 74.6211 29.166H68.7422V33.0762ZM68.7422 25.2422H74.6211C74.8945 25.2422 75.1497 25.1921 75.3867 25.0918C75.6237 24.9915 75.8288 24.8548 76.002 24.6816C76.1842 24.4993 76.3255 24.2897 76.4258 24.0527C76.526 23.8066 76.5762 23.5469 76.5762 23.2734C76.5762 23 76.526 22.7448 76.4258 22.5078C76.3255 22.2708 76.1842 22.0658 76.002 21.8926C75.8288 21.7103 75.6237 21.569 75.3867 21.4688C75.1497 21.3685 74.8945 21.3184 74.6211 21.3184H68.7422V25.2422ZM99.4607 29.5488C99.4607 30.6426 99.2647 31.6634 98.8728 32.6113C98.4809 33.5501 97.9477 34.3659 97.2732 35.0586C96.5987 35.7422 95.8058 36.2845 94.8943 36.6855C93.992 37.0775 93.0212 37.2734 91.9822 37.2734C90.9522 37.2734 89.9815 37.0775 89.0701 36.6855C88.1677 36.2845 87.3748 35.7422 86.6912 35.0586C86.0167 34.3659 85.4835 33.5501 85.0916 32.6113C84.6996 31.6634 84.5037 30.6426 84.5037 29.5488C84.5037 28.4368 84.6996 27.4069 85.0916 26.459C85.4835 25.5111 86.0167 24.6953 86.6912 24.0117C87.3748 23.319 88.1677 22.7767 89.0701 22.3848C89.9815 21.9928 90.9522 21.7969 91.9822 21.7969C93.0212 21.7969 93.992 21.9837 94.8943 22.3574C95.8058 22.722 96.5987 23.2461 97.2732 23.9297C97.9477 24.6042 98.4809 25.4199 98.8728 26.377C99.2647 27.3249 99.4607 28.3822 99.4607 29.5488ZM95.7009 29.5488C95.7009 28.9473 95.6007 28.4049 95.4002 27.9219C95.2087 27.4297 94.9444 27.0104 94.6072 26.6641C94.2699 26.3086 93.8735 26.0397 93.4177 25.8574C92.9711 25.666 92.4926 25.5703 91.9822 25.5703C91.4718 25.5703 90.9887 25.666 90.533 25.8574C90.0864 26.0397 89.6944 26.3086 89.3572 26.6641C89.0291 27.0104 88.7693 27.4297 88.5779 27.9219C88.3865 28.4049 88.2908 28.9473 88.2908 29.5488C88.2908 30.1139 88.3865 30.638 88.5779 31.1211C88.7693 31.6042 89.0291 32.0234 89.3572 32.3789C89.6944 32.7344 90.0864 33.0169 90.533 33.2266C90.9887 33.4271 91.4718 33.5273 91.9822 33.5273C92.4926 33.5273 92.9711 33.4316 93.4177 33.2402C93.8735 33.0488 94.2699 32.7799 94.6072 32.4336C94.9444 32.0872 95.2087 31.668 95.4002 31.1758C95.6007 30.6836 95.7009 30.1413 95.7009 29.5488ZM117.916 29.5488C117.916 30.6426 117.72 31.6634 117.328 32.6113C116.936 33.5501 116.403 34.3659 115.728 35.0586C115.054 35.7422 114.261 36.2845 113.349 36.6855C112.447 37.0775 111.476 37.2734 110.437 37.2734C109.407 37.2734 108.436 37.0775 107.525 36.6855C106.623 36.2845 105.83 35.7422 105.146 35.0586C104.472 34.3659 103.938 33.5501 103.546 32.6113C103.154 31.6634 102.959 30.6426 102.959 29.5488C102.959 28.4368 103.154 27.4069 103.546 26.459C103.938 25.5111 104.472 24.6953 105.146 24.0117C105.83 23.319 106.623 22.7767 107.525 22.3848C108.436 21.9928 109.407 21.7969 110.437 21.7969C111.476 21.7969 112.447 21.9837 113.349 22.3574C114.261 22.722 115.054 23.2461 115.728 23.9297C116.403 24.6042 116.936 25.4199 117.328 26.377C117.72 27.3249 117.916 28.3822 117.916 29.5488ZM114.156 29.5488C114.156 28.9473 114.056 28.4049 113.855 27.9219C113.664 27.4297 113.399 27.0104 113.062 26.6641C112.725 26.3086 112.328 26.0397 111.873 25.8574C111.426 25.666 110.947 25.5703 110.437 25.5703C109.927 25.5703 109.444 25.666 108.988 25.8574C108.541 26.0397 108.149 26.3086 107.812 26.6641C107.484 27.0104 107.224 27.4297 107.033 27.9219C106.841 28.4049 106.746 28.9473 106.746 29.5488C106.746 30.1139 106.841 30.638 107.033 31.1211C107.224 31.6042 107.484 32.0234 107.812 32.3789C108.149 32.7344 108.541 33.0169 108.988 33.2266C109.444 33.4271 109.927 33.5273 110.437 33.5273C110.947 33.5273 111.426 33.4316 111.873 33.2402C112.328 33.0488 112.725 32.7799 113.062 32.4336C113.399 32.0872 113.664 31.668 113.855 31.1758C114.056 30.6836 114.156 30.1413 114.156 29.5488ZM125.98 37H122.22V16.5332H125.98V29.4395L131.544 22.3848H135.837L130.984 28.4824L135.837 37H131.544L128.577 31.6816L125.98 35.127V37ZM158.038 31.709C158.038 32.4746 157.892 33.1992 157.601 33.8828C157.309 34.5573 156.908 35.1452 156.397 35.6465C155.896 36.1478 155.304 36.5443 154.62 36.8359C153.946 37.1276 153.221 37.2734 152.446 37.2734C151.754 37.2734 151.088 37.1549 150.45 36.918C149.812 36.6719 149.233 36.3164 148.714 35.8516C148.203 36.3164 147.629 36.6719 146.991 36.918C146.362 37.1549 145.697 37.2734 144.995 37.2734C144.22 37.2734 143.496 37.1276 142.821 36.8359C142.147 36.5443 141.554 36.1478 141.044 35.6465C140.543 35.1452 140.146 34.5573 139.855 33.8828C139.563 33.1992 139.417 32.4746 139.417 31.709V22.3848H143.149V31.709C143.149 31.9642 143.195 32.2057 143.286 32.4336C143.386 32.6523 143.519 32.8483 143.683 33.0215C143.856 33.1855 144.052 33.3177 144.271 33.418C144.498 33.5091 144.74 33.5547 144.995 33.5547C145.25 33.5547 145.492 33.5091 145.72 33.418C145.948 33.3177 146.148 33.1855 146.321 33.0215C146.495 32.8483 146.627 32.6523 146.718 32.4336C146.818 32.2057 146.868 31.9642 146.868 31.709V22.3848H150.587V31.709C150.587 31.9642 150.637 32.2057 150.737 32.4336C150.838 32.6523 150.97 32.8483 151.134 33.0215C151.307 33.1855 151.503 33.3177 151.722 33.418C151.95 33.5091 152.191 33.5547 152.446 33.5547C152.702 33.5547 152.943 33.5091 153.171 33.418C153.399 33.3177 153.595 33.1855 153.759 33.0215C153.932 32.8483 154.069 32.6523 154.169 32.4336C154.269 32.2057 154.319 31.9642 154.319 31.709V22.3848H158.038V31.709ZM177.136 29.5488C177.136 30.6426 176.94 31.6634 176.548 32.6113C176.156 33.5501 175.623 34.3659 174.948 35.0586C174.274 35.7422 173.481 36.2845 172.569 36.6855C171.667 37.0775 170.696 37.2734 169.657 37.2734C168.627 37.2734 167.656 37.0775 166.745 36.6855C165.843 36.2845 165.05 35.7422 164.366 35.0586C163.692 34.3659 163.158 33.5501 162.766 32.6113C162.374 31.6634 162.179 30.6426 162.179 29.5488C162.179 28.4368 162.374 27.4069 162.766 26.459C163.158 25.5111 163.692 24.6953 164.366 24.0117C165.05 23.319 165.843 22.7767 166.745 22.3848C167.656 21.9928 168.627 21.7969 169.657 21.7969C170.696 21.7969 171.667 21.9837 172.569 22.3574C173.481 22.722 174.274 23.2461 174.948 23.9297C175.623 24.6042 176.156 25.4199 176.548 26.377C176.94 27.3249 177.136 28.3822 177.136 29.5488ZM173.376 29.5488C173.376 28.9473 173.276 28.4049 173.075 27.9219C172.884 27.4297 172.619 27.0104 172.282 26.6641C171.945 26.3086 171.548 26.0397 171.093 25.8574C170.646 25.666 170.167 25.5703 169.657 25.5703C169.147 25.5703 168.664 25.666 168.208 25.8574C167.761 26.0397 167.369 26.3086 167.032 26.6641C166.704 27.0104 166.444 27.4297 166.253 27.9219C166.061 28.4049 165.966 28.9473 165.966 29.5488C165.966 30.1139 166.061 30.638 166.253 31.1211C166.444 31.6042 166.704 32.0234 167.032 32.3789C167.369 32.7344 167.761 33.0169 168.208 33.2266C168.664 33.4271 169.147 33.5273 169.657 33.5273C170.167 33.5273 170.646 33.4316 171.093 33.2402C171.548 33.0488 171.945 32.7799 172.282 32.4336C172.619 32.0872 172.884 31.668 173.075 31.1758C173.276 30.6836 173.376 30.1413 173.376 29.5488ZM185.172 37H181.44V22.3574H182.342L183.573 24.0938C184.174 23.5469 184.858 23.1276 185.624 22.8359C186.389 22.5352 187.182 22.3848 188.003 22.3848H191.297V26.1035H188.003C187.611 26.1035 187.241 26.1764 186.895 26.3223C186.549 26.4681 186.248 26.6686 185.993 26.9238C185.738 27.179 185.537 27.4798 185.391 27.8262C185.245 28.1725 185.172 28.5417 185.172 28.9336V37ZM213.895 37H210.176V27.7031C210.176 27.4479 210.126 27.2064 210.026 26.9785C209.935 26.7507 209.802 26.5501 209.629 26.377C209.456 26.2038 209.256 26.0716 209.028 25.9805C208.8 25.8802 208.558 25.8301 208.303 25.8301C208.048 25.8301 207.806 25.8802 207.578 25.9805C207.36 26.0716 207.164 26.2038 206.991 26.377C206.826 26.5501 206.694 26.7507 206.594 26.9785C206.503 27.2064 206.457 27.4479 206.457 27.7031V37H202.725V27.7031C202.725 27.4479 202.675 27.2064 202.575 26.9785C202.483 26.7507 202.351 26.5501 202.178 26.377C202.005 26.2038 201.804 26.0716 201.576 25.9805C201.349 25.8802 201.107 25.8301 200.852 25.8301C200.597 25.8301 200.355 25.8802 200.127 25.9805C199.909 26.0716 199.713 26.2038 199.539 26.377C199.375 26.5501 199.243 26.7507 199.143 26.9785C199.052 27.2064 199.006 27.4479 199.006 27.7031V37H195.274V22.3574H196.176L197.188 23.4785C197.707 23.041 198.277 22.7038 198.897 22.4668C199.526 22.2207 200.177 22.0977 200.852 22.0977C201.535 22.0977 202.201 22.2253 202.848 22.4805C203.504 22.7357 204.078 23.1777 204.571 23.8066C204.798 23.4967 205.058 23.2324 205.35 23.0137C205.642 22.7949 205.947 22.6172 206.266 22.4805C206.594 22.3438 206.931 22.248 207.278 22.1934C207.624 22.1296 207.966 22.0977 208.303 22.0977C209.078 22.0977 209.802 22.2435 210.477 22.5352C211.16 22.8268 211.753 23.2279 212.254 23.7383C212.765 24.2396 213.166 24.832 213.457 25.5156C213.749 26.1992 213.895 26.9284 213.895 27.7031V37ZM233.277 37H229.353V17.3945H233.277V25.2422H241.111V17.3945H245.035V37H241.111V29.166H233.277V37ZM264.488 37H263.586L262.136 34.9902C261.781 35.3092 261.403 35.61 261.002 35.8926C260.61 36.166 260.195 36.4076 259.757 36.6172C259.32 36.8177 258.869 36.9772 258.404 37.0957C257.948 37.2142 257.483 37.2734 257.009 37.2734C255.979 37.2734 255.009 37.1003 254.097 36.7539C253.195 36.4076 252.402 35.9062 251.718 35.25C251.044 34.5846 250.511 33.7734 250.119 32.8164C249.727 31.8594 249.531 30.7702 249.531 29.5488C249.531 28.4095 249.727 27.3659 250.119 26.418C250.511 25.4609 251.044 24.6406 251.718 23.957C252.402 23.2734 253.195 22.7448 254.097 22.3711C255.009 21.9883 255.979 21.7969 257.009 21.7969C257.483 21.7969 257.953 21.8561 258.418 21.9746C258.882 22.0931 259.334 22.2572 259.771 22.4668C260.209 22.6764 260.623 22.9225 261.015 23.2051C261.416 23.4876 261.79 23.793 262.136 24.1211L263.586 22.3848H264.488V37ZM260.728 29.5488C260.728 29.0384 260.628 28.5462 260.427 28.0723C260.236 27.5892 259.972 27.1654 259.634 26.8008C259.297 26.4271 258.901 26.1309 258.445 25.9121C257.998 25.6842 257.52 25.5703 257.009 25.5703C256.499 25.5703 256.016 25.6569 255.56 25.8301C255.114 26.0033 254.722 26.2585 254.384 26.5957C254.056 26.9329 253.796 27.3522 253.605 27.8535C253.414 28.3457 253.318 28.9108 253.318 29.5488C253.318 30.1868 253.414 30.7565 253.605 31.2578C253.796 31.75 254.056 32.1647 254.384 32.502C254.722 32.8392 255.114 33.0944 255.56 33.2676C256.016 33.4408 256.499 33.5273 257.009 33.5273C257.52 33.5273 257.998 33.418 258.445 33.1992C258.901 32.9714 259.297 32.6751 259.634 32.3105C259.972 31.9368 260.236 31.513 260.427 31.0391C260.628 30.556 260.728 30.0592 260.728 29.5488ZM273.742 37L268.163 22.3574H272.415L275.615 31.4902L278.8 22.3574H283.066L277.488 37H273.742ZM292.114 33.418C292.26 33.4635 292.406 33.4954 292.552 33.5137C292.698 33.5228 292.844 33.5273 292.989 33.5273C293.354 33.5273 293.705 33.4772 294.042 33.377C294.379 33.2767 294.694 33.1354 294.985 32.9531C295.286 32.7617 295.551 32.5339 295.778 32.2695C296.015 31.9961 296.207 31.6953 296.353 31.3672L299.087 34.1152C298.741 34.6074 298.34 35.0495 297.884 35.4414C297.437 35.8333 296.95 36.166 296.421 36.4395C295.901 36.7129 295.35 36.918 294.767 37.0547C294.193 37.2005 293.6 37.2734 292.989 37.2734C291.959 37.2734 290.989 37.082 290.077 36.6992C289.175 36.3164 288.382 35.7832 287.698 35.0996C287.024 34.416 286.491 33.6048 286.099 32.666C285.707 31.7181 285.511 30.679 285.511 29.5488C285.511 28.3913 285.707 27.334 286.099 26.377C286.491 25.4199 287.024 24.6042 287.698 23.9297C288.382 23.2552 289.175 22.7311 290.077 22.3574C290.989 21.9837 291.959 21.7969 292.989 21.7969C293.6 21.7969 294.197 21.8698 294.78 22.0156C295.364 22.1615 295.915 22.3711 296.435 22.6445C296.963 22.918 297.456 23.2552 297.911 23.6562C298.367 24.0482 298.768 24.4902 299.114 24.9824L292.114 33.418ZM294.028 25.7207C293.855 25.6569 293.682 25.6159 293.509 25.5977C293.345 25.5794 293.172 25.5703 292.989 25.5703C292.479 25.5703 291.996 25.666 291.54 25.8574C291.094 26.0397 290.702 26.304 290.364 26.6504C290.036 26.9967 289.776 27.416 289.585 27.9082C289.394 28.3913 289.298 28.9382 289.298 29.5488C289.298 29.6855 289.303 29.8405 289.312 30.0137C289.33 30.1868 289.353 30.3646 289.38 30.5469C289.416 30.7201 289.457 30.8887 289.503 31.0527C289.549 31.2168 289.608 31.3626 289.681 31.4902L294.028 25.7207ZM306.974 37H303.241V22.3574H304.143L305.374 23.7793C305.975 23.2324 306.655 22.8132 307.411 22.5215C308.177 22.2207 308.974 22.0703 309.804 22.0703C310.697 22.0703 311.54 22.2435 312.333 22.5898C313.126 22.9271 313.819 23.3965 314.411 23.998C315.003 24.5905 315.468 25.2878 315.806 26.0898C316.152 26.8828 316.325 27.7305 316.325 28.6328V37H312.593V28.6328C312.593 28.25 312.52 27.89 312.374 27.5527C312.228 27.2064 312.028 26.9056 311.772 26.6504C311.517 26.3952 311.221 26.1947 310.884 26.0488C310.546 25.903 310.186 25.8301 309.804 25.8301C309.412 25.8301 309.043 25.903 308.696 26.0488C308.35 26.1947 308.049 26.3952 307.794 26.6504C307.539 26.9056 307.338 27.2064 307.192 27.5527C307.046 27.89 306.974 28.25 306.974 28.6328V37Z" fill="#3F51B5"/>
<path fill-rule="evenodd" clip-rule="evenodd" d="M55 5C55 2.23858 52.7614 0 50 0H5C2.23858 0 0 2.23857 0 5V50C0 52.7614 2.23857 55 5 55H50C52.7614 55 55 52.7614 55 50V5ZM18.6614 14.0997C18.8586 14.0332 19.0557 14 19.2857 14H26.2395C27.843 14 29.1429 15.2999 29.1429 16.9033V20.6675C29.1429 21.8798 30.6116 22.4833 31.464 21.6213V21.6213C31.9949 21.0844 32.8622 21.0844 33.3932 21.6213V21.6213C34.2455 22.4833 35.7143 21.8798 35.7143 20.6675V15.6428C35.7143 14.7355 36.4498 14 37.3571 14V14C38.2771 14 39 14.731 39 15.6614V28.9375C39 31.6989 36.7614 33.9375 34 33.9375H20.9286C20.0086 33.9375 19.2857 34.6685 19.2857 35.5989C19.2857 36.5294 20.0086 37.2604 20.9286 37.2604H37.3385C38.2561 37.2604 39 38.0043 39 38.9219V38.9219C39 39.8395 38.2561 40.5833 37.3385 40.5833H20.9286C18.2014 40.5833 16 38.357 16 35.5989V17.3229V17.3229C16 16.8944 16.1227 16.4709 16.2876 16.0754C16.7039 15.0772 17.5909 14.3218 18.6614 14.0997Z" fill="#3F51B5"/>
</svg>
